<svg width="122" height="38" viewBox="0 0 122 38" fill="none" xmlns="http://www.w3.org/2000/svg">
<path d="M14.3945 17.8086C14.3945 19.3581 14.1016 20.8164 13.5156 22.1836C12.9297 23.5378 12.1289 24.7227 11.1133 25.7383C10.1107 26.7409 8.92578 27.5352 7.55859 28.1211C6.20443 28.707 4.7526 29 3.20312 29C2.26562 29 1.32812 28.8828 0.390625 28.6484V22.6328C0.807292 22.8802 1.25651 23.069 1.73828 23.1992C2.22005 23.3294 2.70833 23.3945 3.20312 23.3945C3.97135 23.3945 4.69401 23.2513 5.37109 22.9648C6.0612 22.6654 6.66016 22.2617 7.16797 21.7539C7.67578 21.2461 8.07292 20.6536 8.35938 19.9766C8.65885 19.2995 8.80859 18.5768 8.80859 17.8086V0.992188H14.3945V17.8086ZM38.9873 18.3555C38.9873 19.918 38.7073 21.3763 38.1474 22.7305C37.5875 24.0716 36.8258 25.237 35.8623 26.2266C34.8987 27.2031 33.7659 27.9779 32.4638 28.5508C31.1748 29.1107 29.7881 29.3906 28.3037 29.3906C26.8323 29.3906 25.4456 29.1107 24.1435 28.5508C22.8545 27.9779 21.7217 27.2031 20.7451 26.2266C19.7816 25.237 19.0198 24.0716 18.4599 22.7305C17.9 21.3763 17.6201 19.918 17.6201 18.3555C17.6201 16.7669 17.9 15.2956 18.4599 13.9414C19.0198 12.5872 19.7816 11.4219 20.7451 10.4453C21.7217 9.45573 22.8545 8.68099 24.1435 8.12109C25.4456 7.5612 26.8323 7.28125 28.3037 7.28125C29.7881 7.28125 31.1748 7.54818 32.4638 8.08203C33.7659 8.60286 34.8987 9.35156 35.8623 10.3281C36.8258 11.2917 37.5875 12.457 38.1474 13.8242C38.7073 15.1784 38.9873 16.6888 38.9873 18.3555ZM33.6162 18.3555C33.6162 17.4961 33.473 16.7214 33.1865 16.0312C32.9131 15.3281 32.5355 14.7292 32.0537 14.2344C31.5719 13.7266 31.0055 13.3424 30.3545 13.082C29.7164 12.8086 29.0329 12.6719 28.3037 12.6719C27.5745 12.6719 26.8844 12.8086 26.2334 13.082C25.5954 13.3424 25.0355 13.7266 24.5537 14.2344C24.0849 14.7292 23.7138 15.3281 23.4404 16.0312C23.167 16.7214 23.0303 17.4961 23.0303 18.3555C23.0303 19.1628 23.167 19.9115 23.4404 20.6016C23.7138 21.2917 24.0849 21.8906 24.5537 22.3984C25.0355 22.9062 25.5954 23.3099 26.2334 23.6094C26.8844 23.8958 27.5745 24.0391 28.3037 24.0391C29.0329 24.0391 29.7164 23.9023 30.3545 23.6289C31.0055 23.3555 31.5719 22.9714 32.0537 22.4766C32.5355 21.9818 32.9131 21.3828 33.1865 20.6797C33.473 19.9766 33.6162 19.2018 33.6162 18.3555ZM47.6425 29H42.3105V8.08203H43.5996L45.3574 10.5625C46.2168 9.78125 47.1933 9.18229 48.2871 8.76562C49.3808 8.33594 50.5136 8.12109 51.6855 8.12109H56.3925V13.4336H51.6855C51.1256 13.4336 50.5983 13.5378 50.1035 13.7461C49.6087 13.9544 49.179 14.2409 48.8144 14.6055C48.4498 14.9701 48.1634 15.3997 47.955 15.8945C47.7467 16.3893 47.6425 16.9167 47.6425 17.4766V29ZM64.579 29H59.247V8.08203H60.5361L62.2939 10.1133C63.1533 9.33203 64.1233 8.73307 65.204 8.31641C66.2978 7.88672 67.4371 7.67188 68.622 7.67188C69.898 7.67188 71.1025 7.91927 72.2353 8.41406C73.3681 8.89583 74.3577 9.56641 75.204 10.4258C76.0504 11.2721 76.7144 12.2682 77.1962 13.4141C77.691 14.5469 77.9384 15.7578 77.9384 17.0469V29H72.6064V17.0469C72.6064 16.5 72.5022 15.9857 72.2939 15.5039C72.0855 15.0091 71.7991 14.5794 71.4345 14.2148C71.0699 13.8503 70.6467 13.5638 70.165 13.3555C69.6832 13.1471 69.1689 13.043 68.622 13.043C68.0621 13.043 67.5348 13.1471 67.04 13.3555C66.5452 13.5638 66.1155 13.8503 65.7509 14.2148C65.3863 14.5794 65.0999 15.0091 64.8915 15.5039C64.6832 15.9857 64.579 16.5 64.579 17.0469V29ZM90.4413 23.8828C90.6496 23.9479 90.858 23.9935 91.0663 24.0195C91.2746 24.0326 91.483 24.0391 91.6913 24.0391C92.2121 24.0391 92.7135 23.9674 93.1952 23.8242C93.677 23.681 94.1262 23.4792 94.5429 23.2188C94.9726 22.9453 95.3502 22.6198 95.6757 22.2422C96.0142 21.8516 96.2877 21.4219 96.496 20.9531L100.402 24.8789C99.9075 25.582 99.3345 26.2135 98.6835 26.7734C98.0455 27.3333 97.3489 27.8086 96.5937 28.1992C95.8515 28.5898 95.0637 28.8828 94.2304 29.0781C93.4101 29.2865 92.5637 29.3906 91.6913 29.3906C90.22 29.3906 88.8332 29.1172 87.5312 28.5703C86.2421 28.0234 85.1093 27.2617 84.1327 26.2852C83.1692 25.3086 82.4075 24.1497 81.8476 22.8086C81.2877 21.4544 81.0077 19.9701 81.0077 18.3555C81.0077 16.7018 81.2877 15.1914 81.8476 13.8242C82.4075 12.457 83.1692 11.2917 84.1327 10.3281C85.1093 9.36458 86.2421 8.61589 87.5312 8.08203C88.8332 7.54818 90.22 7.28125 91.6913 7.28125C92.5637 7.28125 93.4166 7.38542 94.2499 7.59375C95.0832 7.80208 95.871 8.10156 96.6132 8.49219C97.3684 8.88281 98.0715 9.36458 98.7226 9.9375C99.3736 10.4974 99.9465 11.1289 100.441 11.832L90.4413 23.8828ZM93.1757 12.8867C92.9283 12.7956 92.6809 12.737 92.4335 12.7109C92.1991 12.6849 91.9517 12.6719 91.6913 12.6719C90.9621 12.6719 90.272 12.8086 89.621 13.082C88.983 13.3424 88.4231 13.7201 87.9413 14.2148C87.4726 14.7096 87.1015 15.3086 86.828 16.0117C86.5546 16.7018 86.4179 17.4831 86.4179 18.3555C86.4179 18.5508 86.4244 18.7721 86.4374 19.0195C86.4635 19.2669 86.496 19.5208 86.5351 19.7812C86.5871 20.0286 86.6457 20.2695 86.7108 20.5039C86.776 20.7383 86.8606 20.9466 86.9648 21.1289L93.1757 12.8867ZM108.55 36.9688V31.5977L111.518 31.6367C112.039 31.6367 112.541 31.5521 113.022 31.3828C113.504 31.2135 113.947 30.9792 114.35 30.6797C114.767 30.3802 115.132 30.0221 115.444 29.6055C115.757 29.2018 116.011 28.7591 116.206 28.2773C115.62 28.5247 115.021 28.7721 114.409 29.0195C113.81 29.2669 113.205 29.3906 112.593 29.3906C111.304 29.3906 110.093 29.1628 108.96 28.707C107.827 28.2513 106.831 27.6068 105.972 26.7734C105.125 25.9271 104.455 24.9049 103.96 23.707C103.478 22.4961 103.237 21.1419 103.237 19.6445V8.08203H108.55V19.6445C108.55 20.3867 108.654 21.0378 108.862 21.5977C109.084 22.1445 109.377 22.6068 109.741 22.9844C110.106 23.349 110.529 23.6224 111.011 23.8047C111.505 23.987 112.033 24.0781 112.593 24.0781C113.14 24.0781 113.654 23.9544 114.136 23.707C114.63 23.4466 115.06 23.1081 115.425 22.6914C115.789 22.2747 116.076 21.806 116.284 21.2852C116.492 20.7513 116.597 20.2044 116.597 19.6445V8.08203H121.968V26.3633C121.955 27.8346 121.668 29.2148 121.108 30.5039C120.548 31.793 119.78 32.9193 118.804 33.8828C117.84 34.8464 116.714 35.6081 115.425 36.168C114.136 36.7279 112.755 37.0078 111.284 37.0078L108.55 36.9688Z" fill="white"/>
</svg>
