<svg width="30" height="30" viewBox="0 0 30 30" fill="none" xmlns="http://www.w3.org/2000/svg">
<g clip-path="url(#clip0_12_45)">
<path d="M12.0032 18.1494L12.0423 18.2518C12.0545 18.2849 12.0729 18.3292 12.0887 18.3758L12.1455 18.5395C12.1678 18.6022 12.1859 18.6654 12.2097 18.7387C12.2323 18.8111 12.259 18.892 12.28 18.9715L12.3533 19.2335C12.3774 19.3247 12.3977 19.4164 12.4221 19.5162C12.5268 19.9473 12.6012 20.3852 12.6447 20.8267C12.6696 21.0617 12.6802 21.2959 12.6854 21.5367C12.6858 21.7727 12.6801 22.0148 12.658 22.2512C12.6363 22.4863 12.6006 22.72 12.5511 22.9508C12.5014 23.1774 12.4358 23.4002 12.3547 23.6176C12.1932 24.0485 11.9666 24.4467 11.6723 24.7986C11.5267 24.9762 11.3565 25.1346 11.188 25.2986C11.017 25.4602 10.842 25.6219 10.6594 25.7786C10.2901 26.099 9.9042 26.3999 9.50338 26.68C9.09861 26.9647 8.67287 27.2283 8.23617 27.4703C8.01741 27.5903 7.79572 27.7049 7.57131 27.8139C7.34762 27.9213 7.12134 28.0232 6.89268 28.1196C6.43658 28.3099 5.97703 28.475 5.52141 28.6119C5.08155 28.7447 4.6354 28.8558 4.18459 28.9447C3.32244 29.1166 2.53113 29.1871 1.94297 29.2022L1.73268 29.2058L1.54383 29.2056L1.23809 29.1975L1.04209 29.186L0.972833 29.18L0.966857 29.1108L0.955372 28.9148L0.947228 28.609L0.947052 28.4202L0.950685 28.2099C0.965743 27.6217 1.03617 26.8304 1.20815 25.9683C1.29708 25.5175 1.40815 25.0713 1.54096 24.6315C1.67777 24.1758 1.84295 23.7162 2.0332 23.2602C2.12957 23.0315 2.2315 22.8053 2.33889 22.5816C2.44787 22.358 2.56213 22.1356 2.68254 21.9167C2.92447 21.48 3.18815 21.0543 3.47279 20.6495C3.75285 20.2487 4.05376 19.8628 4.37426 19.4935C4.53094 19.3109 4.69254 19.1358 4.8542 18.9649C5.0182 18.7963 5.17658 18.6262 5.35418 18.4806C5.70621 18.1863 6.10436 17.9597 6.53526 17.7981C6.75262 17.7171 6.97542 17.6515 7.20199 17.6018C7.43286 17.5522 7.66648 17.5165 7.9016 17.4949C8.13803 17.4728 8.38014 17.4671 8.6161 17.4674C8.85692 17.4726 9.09106 17.4833 9.32608 17.5082C9.76757 17.5517 10.2055 17.6261 10.6366 17.7308C10.7364 17.7551 10.828 17.7755 10.9194 17.7996L11.1813 17.8728C11.2608 17.8939 11.3418 17.9206 11.4141 17.9432C11.4874 17.9669 11.5506 17.9851 11.6133 18.0073L11.7771 18.0642C11.8236 18.08 11.8679 18.0984 11.901 18.1106C11.9683 18.1361 12.0032 18.1494 12.0032 18.1494Z" fill="#FFB636"/>
<path d="M4.50352 10.6495L0.254649 14.8984C-0.0390231 15.1921 0.168985 15.6942 0.584297 15.6942H4.15529C4.27893 15.6942 4.39752 15.7433 4.48494 15.8307L6.80361 18.1494L10.5695 10.513H4.83316C4.77194 10.513 4.71132 10.525 4.65475 10.5485C4.59819 10.5719 4.5468 10.6062 4.50352 10.6495ZM12.6657 23.0034L14.9844 25.3221C15.0718 25.4095 15.1209 25.5281 15.1209 25.6518V29.2227C15.1209 29.6381 15.623 29.8461 15.9167 29.5524L20.1656 25.3035C20.253 25.2161 20.3021 25.0975 20.3021 24.9739V19.2376L12.6657 23.0034Z" fill="#FF473E"/>
<path d="M29.6278 1.04736L29.6323 1.08469C29.635 1.10924 29.6404 1.14709 29.6443 1.19379C29.652 1.28713 29.6694 1.43174 29.6776 1.60588C29.7041 1.96412 29.7219 2.46844 29.7094 3.07518C29.6973 3.68227 29.6545 4.39143 29.5618 5.16123C29.5411 5.35611 29.5115 5.54906 29.4829 5.74957C29.4564 5.95213 29.4186 6.15 29.3841 6.35736C29.3132 6.77027 29.2247 7.19045 29.1226 7.61906C28.9098 8.50861 28.6396 9.38343 28.3137 10.238C27.9775 11.1182 27.574 11.9973 27.1011 12.8513C26.6275 13.7046 26.0887 14.5369 25.4865 15.3281C24.8852 16.12 24.2212 16.8714 23.5089 17.5744C22.7966 18.2775 22.0368 18.933 21.2385 19.528C21.0389 19.6767 20.8381 19.8229 20.6328 19.9627C20.4297 20.1049 20.2222 20.2408 20.0154 20.3755C19.5999 20.6428 19.1756 20.8929 18.7468 21.1276C17.9028 21.5894 17.0284 21.9932 16.1295 22.3362C15.2754 22.6613 14.4017 22.9325 13.5136 23.1482C13.086 23.2512 12.668 23.3419 12.2558 23.4135L11.9524 23.4681C11.8518 23.4854 11.7498 23.4996 11.6508 23.5151L11.3569 23.5599L11.0655 23.597C10.2998 23.6938 9.59537 23.7413 8.99273 23.7579C8.39074 23.7751 7.8893 23.7602 7.53515 23.7378C7.36277 23.7313 7.2191 23.7148 7.12687 23.7083C7.08064 23.7049 7.04308 23.6998 7.01883 23.6973L6.98185 23.6932C6.70166 23.662 6.48914 23.4396 6.45926 23.1706L6.45515 23.1337C6.45269 23.1094 6.4476 23.0719 6.4442 23.0256C6.43769 22.9334 6.42117 22.7898 6.41467 22.6174C6.39228 22.2632 6.3774 21.7618 6.39457 21.1598C6.41115 20.5571 6.45861 19.8527 6.55547 19.087L6.59256 18.7956L6.63738 18.5017C6.65291 18.4027 6.66715 18.3008 6.68431 18.2002L6.73898 17.8967C6.81053 17.4845 6.90123 17.0665 7.0043 16.6389C7.21987 15.7508 7.49107 14.8771 7.81629 14.023C8.15936 13.1242 8.56314 12.2497 9.02484 11.4057C9.25963 10.977 9.50976 10.5526 9.77701 10.1371C9.91166 9.93029 10.0476 9.72281 10.1897 9.51973C10.3296 9.31436 10.4758 9.11362 10.6245 8.91399C11.2194 8.11571 11.875 7.35586 12.578 6.6436C13.281 5.93127 14.0325 5.26735 14.8244 4.666C15.6155 4.06389 16.4479 3.52506 17.3012 3.05145C18.1552 2.57854 19.0344 2.17506 19.9144 1.83885C20.769 1.51293 21.6439 1.24274 22.5334 1.02996C22.962 0.927833 23.3822 0.839357 23.7951 0.768459C24.0025 0.733947 24.2003 0.696154 24.4029 0.669611C24.6034 0.641017 24.7963 0.611369 24.9912 0.590685C25.761 0.49799 26.4702 0.455216 27.0773 0.443087C27.684 0.430607 28.1883 0.448361 28.5466 0.474904C28.7207 0.483166 28.8653 0.500626 28.9587 0.508244C29.0054 0.512111 29.0432 0.517443 29.0678 0.520255L29.1051 0.524767C29.3845 0.558459 29.5955 0.779884 29.6278 1.04736Z" fill="#ADBBBC"/>
<path d="M14.2445 15.908L14.2786 16.0004C14.2977 16.0579 14.3234 16.1406 14.3411 16.2327C14.383 16.4234 14.3969 16.6556 14.3211 16.8575C14.2837 16.959 14.2145 17.0436 14.1495 17.1459L13.9331 17.4714L13.4136 18.2514C13.2073 18.557 12.9993 18.8614 12.7895 19.1647C12.5557 19.502 12.319 19.8374 12.0796 20.1708L11.6982 20.6958L11.3019 21.2281C11.033 21.5841 10.7578 21.9438 10.478 22.2988C10.201 22.6526 9.9204 23.0036 9.63638 23.3518C9.35625 23.6966 9.08156 24.0369 8.81121 24.3616L8.41459 24.8416C8.28322 24.9967 8.16375 25.1574 8.025 25.2915C7.88713 25.4263 7.72804 25.5326 7.54523 25.6065C7.364 25.6819 7.1656 25.7314 6.97377 25.7777C6.61215 25.8635 6.24658 25.9315 5.87836 25.9818C5.7082 26.005 5.54549 26.0233 5.39179 26.0371C5.23892 26.0516 5.09103 26.0574 4.96142 26.0667C4.83082 26.075 4.70613 26.0743 4.60195 26.078C4.49619 26.0801 4.40097 26.0766 4.32644 26.0765C4.25033 26.0748 4.18951 26.071 4.14972 26.0696L4.08726 26.0654L4.08304 26.003C4.0817 25.9632 4.07789 25.9023 4.07619 25.8263C4.07607 25.7517 4.07261 25.6566 4.07472 25.5507C4.07836 25.4465 4.07771 25.3219 4.08597 25.1913C4.09523 25.0617 4.10109 24.9138 4.11562 24.7609C4.12933 24.6073 4.14761 24.4445 4.17093 24.2743C4.22116 23.9061 4.28924 23.5405 4.37496 23.1789C4.42125 22.9872 4.47082 22.7888 4.54623 22.6075C4.62006 22.4246 4.72634 22.2656 4.86123 22.1277C4.99529 21.989 5.15601 21.8695 5.31111 21.7382L5.79111 21.3415C6.1159 21.0712 6.45615 20.7964 6.80097 20.5164C7.14521 20.2357 7.49783 19.9535 7.8539 19.6747C8.20892 19.3949 8.56863 19.1198 8.92465 18.8509L9.45697 18.4546L9.98191 18.0731C10.3153 17.8337 10.6507 17.5971 10.9881 17.3633C11.3103 17.14 11.6173 16.9311 11.9014 16.7391L12.6814 16.2197L13.0069 16.0033C13.1091 15.9382 13.1937 15.8691 13.2953 15.8317C13.4972 15.7559 13.7293 15.7697 13.9201 15.8117C14.0122 15.8294 14.0948 15.8551 14.1523 15.8741L14.2445 15.908Z" fill="#FF473E"/>
<path d="M21.2176 12.109C21.2176 13.8619 19.7965 15.283 18.0435 15.283C16.2906 15.283 14.8695 13.8619 14.8695 12.109C14.8695 10.356 16.2906 8.93496 18.0435 8.93496C19.7965 8.93496 21.2176 10.356 21.2176 12.109ZM22.813 5.31908C21.6972 5.31908 20.7926 6.22365 20.7926 7.33951C20.7926 8.45537 21.6972 9.35994 22.813 9.35994C23.9289 9.35994 24.8334 8.45537 24.8334 7.33951C24.8334 6.22365 23.9289 5.31908 22.813 5.31908Z" fill="#2B3B47"/>
</g>
<defs>
<clipPath id="clip0_12_45">
<rect width="30" height="30" fill="white"/>
</clipPath>
</defs>
</svg>
